HIERARCHY
ROOT hip
{
  OFFSET 0.00112043 5.09927 -9.65472
  CHANNELS 6 Xposition Yposition Zposition Zrotation Xrotation Yrotation
  JOINT abdomen
  {
    OFFSET 0 -1.186 -1.5018
    CHANNELS 3 Zrotation Xrotation Yrotation
    JOINT abdomen2
    {
      OFFSET 0 9.964 0.2134
      CHANNELS 3 Zrotation Xrotation Yrotation
      JOINT chest
      {
        OFFSET 0 13.134 -3.2573
        CHANNELS 3 Zrotation Xrotation Yrotation
        JOINT neck
        {
          OFFSET 0 20.686 -1.6905
          CHANNELS 3 Zrotation Xrotation Yrotation
          JOINT head
          {
            OFFSET 0 7.238 -0.1237
            CHANNELS 3 Zrotation Xrotation Yrotation
            End Site
            {
              OFFSET 0 0 0
            }
          }
        }
        JOINT lCollar
        {
          OFFSET 1.7069 20.075 5.0056
          CHANNELS 3 Zrotation Xrotation Yrotation
          JOINT lShldr
          {
            OFFSET 13.6458 -0.047 -4.849
            CHANNELS 3 Zrotation Xrotation Yrotation
            JOINT lForeArm
            {
              OFFSET 28.3255 -0.9759 2.2888
              CHANNELS 3 Zrotation Xrotation Yrotation
              JOINT lHand
              {
                OFFSET 22.1583 -0.53 10.8316
                CHANNELS 3 Zrotation Xrotation Yrotation
                JOINT lThumb1
                {
                  OFFSET 0.786 0.112 2.5817
                  CHANNELS 3 Zrotation Xrotation Yrotation
                  JOINT lThumb2
                  {
                    OFFSET 0.3601 -0.878 4.2331
                    CHANNELS 3 Zrotation Xrotation Yrotation
                    JOINT lThumb2_End
                    {
                      OFFSET 1.8127 -1.216 2.2227
                      CHANNELS 3 Zrotation Xrotation Yrotation
                      End Site
                      {
                        OFFSET 0.0181 -0.0122 0.0222
                      }
                    }
                  }
                }
                JOINT lCarpal1
                {
                  OFFSET 0.9571 1.114 1.7695
                  CHANNELS 3 Zrotation Xrotation Yrotation
                  JOINT lIndex1
                  {
                    OFFSET 4.1246 0.487 4.1451
                    CHANNELS 3 Zrotation Xrotation Yrotation
                    JOINT lIndex2
                    {
                      OFFSET 3.4052 -1.454 2.7682
                      CHANNELS 3 Zrotation Xrotation Yrotation
                      JOINT lIndex2_End
                      {
                        OFFSET 1.4531 -1.795 1.2713
                        CHANNELS 3 Zrotation Xrotation Yrotation
                        End Site
                        {
                          OFFSET 0.0145 -0.0179 0.0127
                        }
                      }
                    }
                  }
                  JOINT lMid1
                  {
                    OFFSET 5.6954 0.21 2.1184
                    CHANNELS 3 Zrotation Xrotation Yrotation
                    JOINT lMid2
                    {
                      OFFSET 3.9766 -1.54 2.3863
                      CHANNELS 3 Zrotation Xrotation Yrotation
                      JOINT lMid2_End
                      {
                        OFFSET 1.4042 -1.926 1.125
                        CHANNELS 3 Zrotation Xrotation Yrotation
                        End Site
                        {
                          OFFSET 0.014 -0.0193 0.0113
                        }
                      }
                    }
                  }
                }
                JOINT lCarpal2
                {
                  OFFSET 2.0956 0.66 -0.3894
                  CHANNELS 3 Zrotation Xrotation Yrotation
                  JOINT lRing1
                  {
                    OFFSET 5.0395 -0.09 2.4971
                    CHANNELS 3 Zrotation Xrotation Yrotation
                    JOINT lRing2
                    {
                      OFFSET 3.7921 -1.552 1.4806
                      CHANNELS 3 Zrotation Xrotation Yrotation
                      JOINT lRing2_End
                      {
                        OFFSET 1.4655 -1.808 0.9609
                        CHANNELS 3 Zrotation Xrotation Yrotation
                        End Site
                        {
                          OFFSET 0.0147 -0.0181 0.0096
                        }
                      }
                    }
                  }
                  JOINT lPinky1
                  {
                    OFFSET 4.9141 -1.269 0.3591
                    CHANNELS 3 Zrotation Xrotation Yrotation
                    JOINT lPinky2
                    {
                      OFFSET 3.1477 -1.685 0.8462
                      CHANNELS 3 Zrotation Xrotation Yrotation
                      JOINT lPinky2_End
                      {
                        OFFSET 0.8055 -1.585 0.7955
                        CHANNELS 3 Zrotation Xrotation Yrotation
                        End Site
                        {
                          OFFSET 0.0081 -0.0158 0.008
                        }
                      }
                    }
                  }
                }
              }
            }
          }
        }
        JOINT rCollar
        {
          OFFSET -1.7069 20.075 5.0056
          CHANNELS 3 Zrotation Xrotation Yrotation
          JOINT rShldr
          {
            OFFSET -13.6458 -0.047 -4.849
            CHANNELS 3 Zrotation Xrotation Yrotation
            JOINT rForeArm
            {
              OFFSET -28.3255 -0.9759 2.2888
              CHANNELS 3 Zrotation Xrotation Yrotation
              JOINT rHand
              {
                OFFSET -22.1583 -0.53 10.8316
                CHANNELS 3 Zrotation Xrotation Yrotation
                JOINT rThumb1
                {
                  OFFSET -0.786 0.112 2.5817
                  CHANNELS 3 Zrotation Xrotation Yrotation
                  JOINT rThumb2
                  {
                    OFFSET -0.3601 -0.878 4.2331
                    CHANNELS 3 Zrotation Xrotation Yrotation
                    JOINT rThumb2_End
                    {
                      OFFSET -1.8127 -1.216 2.2227
                      CHANNELS 3 Zrotation Xrotation Yrotation
                      End Site
                      {
                        OFFSET -0.0181 -0.0122 0.0222
                      }
                    }
                  }
                }
                JOINT rCarpal1
                {
                  OFFSET -0.9571 1.114 1.7695
                  CHANNELS 3 Zrotation Xrotation Yrotation
                  JOINT rIndex1
                  {
                    OFFSET -4.1246 0.487 4.1451
                    CHANNELS 3 Zrotation Xrotation Yrotation
                    JOINT rIndex2
                    {
                      OFFSET -3.4052 -1.454 2.7682
                      CHANNELS 3 Zrotation Xrotation Yrotation
                      JOINT rIndex2_End
                      {
                        OFFSET -1.4531 -1.795 1.2713
                        CHANNELS 3 Zrotation Xrotation Yrotation
                        End Site
                        {
                          OFFSET -0.0145 -0.018 0.0127
                        }
                      }
                    }
                  }
                  JOINT rMid1
                  {
                    OFFSET -5.6954 0.21 2.1184
                    CHANNELS 3 Zrotation Xrotation Yrotation
                    JOINT rMid2
                    {
                      OFFSET -3.9766 -1.54 2.3863
                      CHANNELS 3 Zrotation Xrotation Yrotation
                      JOINT rMid2_End
                      {
                        OFFSET -1.4042 -1.926 1.125
                        CHANNELS 3 Zrotation Xrotation Yrotation
                        End Site
                        {
                          OFFSET -0.014 -0.0193 0.0113
                        }
                      }
                    }
                  }
                }
                JOINT rCarpal2
                {
                  OFFSET -2.0956 0.66 -0.3894
                  CHANNELS 3 Zrotation Xrotation Yrotation
                  JOINT rRing1
                  {
                    OFFSET -5.0395 -0.09 2.4971
                    CHANNELS 3 Zrotation Xrotation Yrotation
                    JOINT rRing2
                    {
                      OFFSET -3.7921 -1.552 1.4806
                      CHANNELS 3 Zrotation Xrotation Yrotation
                      JOINT rRing2_End
                      {
                        OFFSET -1.4655 -1.808 0.9609
                        CHANNELS 3 Zrotation Xrotation Yrotation
                        End Site
                        {
                          OFFSET -0.0147 -0.0181 0.0096
                        }
                      }
                    }
                  }
                  JOINT rPinky1
                  {
                    OFFSET -4.9141 -1.269 0.3592
                    CHANNELS 3 Zrotation Xrotation Yrotation
                    JOINT rPinky2
                    {
                      OFFSET -3.1477 -1.685 0.8462
                      CHANNELS 3 Zrotation Xrotation Yrotation
                      JOINT rPinky2_End
                      {
                        OFFSET -0.8055 -1.585 0.7955
                        CHANNELS 3 Zrotation Xrotation Yrotation
                        End Site
                        {
                          OFFSET -0.0081 -0.0158 0.008
                        }
                      }
                    }
                  }
                }
              }
            }
          }
        }
      }
    }
  }
  JOINT lThigh
  {
    OFFSET 8.367 -8.2066 0.5982
    CHANNELS 3 Zrotation Xrotation Yrotation
    JOINT lShin
    {
      OFFSET 2.1923 -43.463 -0.4932
      CHANNELS 3 Zrotation Xrotation Yrotation
      JOINT lFoot
      {
        OFFSET 0.7333 -45.8593 -2.6451
        CHANNELS 3 Zrotation Xrotation Yrotation
        End Site
        {
          OFFSET 2.6618 -4.2699 12.3931
        }
      }
    }
  }
  JOINT rThigh
  {
    OFFSET -8.367 -8.2066 0.5982
    CHANNELS 3 Zrotation Xrotation Yrotation
    JOINT rShin
    {
      OFFSET -2.1923 -43.463 -0.4931
      CHANNELS 3 Zrotation Xrotation Yrotation
      JOINT rFoot
      {
        OFFSET -0.7333 -45.8593 -2.6451
        CHANNELS 3 Zrotation Xrotation Yrotation
        End Site
        {
          OFFSET -2.6618 -4.2699 12.3931
        }
      }
    }
  }
}
MOTION
Frames:	4
Frame Time:	0.0333333
0 91.7903 2.51682 0 0 -0 0 0 -0 0 0 -0 0 0 -0 0 0 -0 0 0 -0 0 0 -0 1.66051 0.0835086 5.75766 -0.0175111 0.895433 15.7816 7.95139e-016 -1.98785e-016 -0 5.46658e-016 -3.97569e-016 -0 5.96354e-016 0 -0 3.97569e-016 1.98785e-016 9.54166e-015 1.49089e-016 -3.97569e-016 -0 6.4605e-016 0 3.18055e-015 5.96354e-016 0 3.18055e-015 8.94531e-016 -1.98785e-016 6.36111e-015 6.4605e-016 0 3.18055e-015 5.96354e-016 0 3.18055e-015 8.94531e-016 -1.98785e-016 6.36111e-015 1.49089e-016 -3.97569e-016 -0 6.4605e-016 0 3.18055e-015 5.96354e-016 0 3.18055e-015 8.94531e-016 -1.98785e-016 6.36111e-015 6.4605e-016 0 3.18055e-015 5.96354e-016 0 3.18055e-015 8.94531e-016 -1.98785e-016 6.36111e-015 0 0 -0 -1.4496 0.0636048 -5.0245 -1.74811 1.20616 -16.8394 -1.19271e-015 1.98785e-016 -3.18055e-015 -3.97569e-016 1.98785e-016 -3.18055e-015 -2.98177e-016 1.98785e-016 -3.18055e-015 -2.98177e-016 3.97569e-016 -0 4.96962e-016 0 -6.36111e-015 -9.93923e-017 3.97569e-016 -0 -8.94531e-016 5.96354e-016 -0 -3.97569e-016 3.97569e-016 -0 -9.93923e-017 3.97569e-016 -0 -8.94531e-016 5.96354e-016 -0 -3.97569e-016 3.97569e-016 -0 4.96962e-016 0 -6.36111e-015 -9.93923e-017 3.97569e-016 -0 -8.94531e-016 5.96354e-016 -0 -3.97569e-016 3.97569e-016 -0 -9.93923e-017 3.97569e-016 -0 -8.94531e-016 5.96354e-016 -0 -3.97569e-016 3.97569e-016 -0 -4.66111 -0.998717 0.12318 0.00986924 1.54847 0.176523 4.65186 -0.572283 -0.254274 4.66111 -0.998765 -0.123176 -0.00986867 1.54869 -0.176537 -4.65186 -0.572453 0.25427 
0.238393 -0.648126 69.5048 -180 -85.9956 -180 -0.00246235 0.642671 -0.090251 -0.00391257 1.28531 -0.180491 -0.00391263 1.28534 -0.180491 4.26201e-006 25.9978 -1.9442e-006 -9.16088e-008 4.99722 7.23865e-008 -8.21482 -15.5543 -7.11547 -72.8195 -0.954299 1.13813 4.31549 -4.63596 -23.4817 -18.9067 0.251467 15.0608 6.55989e-015 -1.22253e-014 6.36111e-015 6.75868e-015 -8.54774e-015 -0 6.55989e-015 -1.10325e-014 3.18055e-015 9.93923e-016 -2.78299e-015 6.36111e-015 7.15625e-015 -1.60022e-014 1.27222e-014 6.36111e-015 -1.02374e-014 -3.18055e-015 6.55989e-015 -1.00386e-014 -0 7.15625e-015 -1.60022e-014 1.27222e-014 6.36111e-015 -1.02374e-014 -3.18055e-015 6.55989e-015 -1.00386e-014 -0 9.93923e-016 -2.78299e-015 6.36111e-015 7.15625e-015 -1.60022e-014 1.27222e-014 6.36111e-015 -1.02374e-014 -3.18055e-015 6.55989e-015 -1.00386e-014 -0 7.15625e-015 -1.60022e-014 1.27222e-014 6.36111e-015 -1.02374e-014 -3.18055e-015 6.55989e-015 -1.00386e-014 -0 -0.356475 -9.01375 -0.850726 82.3446 0.620919 -1.64559 0.343917 0.893196 43.3759 14.5491 2.8058 -7.46612 9.93923e-016 9.93923e-016 -0 1.98785e-015 8.94531e-016 -6.36111e-015 3.97569e-016 2.38542e-015 -6.36111e-015 -5.96354e-016 -6.95746e-016 -0 1.78906e-015 7.95139e-016 1.27222e-014 1.09332e-015 8.94531e-016 -3.18055e-015 1.78906e-015 1.98785e-016 3.18055e-015 1.78906e-015 7.95139e-016 1.27222e-014 1.09332e-015 8.94531e-016 -3.18055e-015 1.78906e-015 1.98785e-016 3.18055e-015 -5.96354e-016 -6.95746e-016 -0 1.78906e-015 7.95139e-016 1.27222e-014 1.09332e-015 8.94531e-016 -3.18055e-015 1.78906e-015 1.98785e-016 3.18055e-015 1.78906e-015 7.95139e-016 1.27222e-014 1.09332e-015 8.94531e-016 -3.18055e-015 1.78906e-015 1.98785e-016 3.18055e-015 83.5526 -57.953 120.39 -114.771 58.0193 120.562 17.7334 21.5851 -17.0981 -96.3945 -53.0601 -133.076 136.776 59.0733 -138.999 -17.522 23.8224 17.0239 
0.23347 -0.628254 69.5115 -180 -85.9956 -180 -0.00251286 0.664612 -0.0902397 -0.00397923 1.3292 -0.180468 -0.00397917 1.32923 -0.180469 -3.0975e-007 24.6731 5.27479e-006 -1.2222e-007 3.94585 6.5025e-008 -7.24112 -15.2651 -6.37996 -73.6553 -0.805383 1.37804 4.10077 -4.42985 -24.1392 -18.8133 0.376618 14.8882 1.19271e-015 -2.6339e-014 -0 1.42348e-030 -2.56432e-014 3.18055e-015 3.97569e-016 -2.5842e-014 -0 1.19271e-015 -9.93923e-016 -0 5.96354e-016 -2.72335e-014 9.54166e-015 1.98785e-016 -2.69353e-014 6.36111e-015 -1.98785e-016 -2.39536e-014 3.18055e-015 5.96354e-016 -2.72335e-014 9.54166e-015 1.98785e-016 -2.69353e-014 6.36111e-015 -1.98785e-016 -2.39536e-014 3.18055e-015 1.19271e-015 -9.93923e-016 -0 5.96354e-016 -2.72335e-014 9.54166e-015 1.98785e-016 -2.69353e-014 6.36111e-015 -1.98785e-016 -2.39536e-014 3.18055e-015 5.96354e-016 -2.72335e-014 9.54166e-015 1.98785e-016 -2.69353e-014 6.36111e-015 -1.98785e-016 -2.39536e-014 3.18055e-015 -0.628528 -8.4995 -1.20663 82.6142 0.684185 -1.98231 0.403203 1.01775 44.2041 14.5491 2.80579 -7.46612 3.48881e-006 3.32609e-007 -2.88525e-006 -3.48881e-006 -3.32609e-007 2.88525e-006 3.48881e-006 3.32609e-007 -2.88525e-006 -1.2921e-015 -2.6339e-015 3.18055e-015 3.48881e-006 3.32609e-007 -2.88525e-006 -3.48881e-006 -3.32609e-007 2.88525e-006 3.48881e-006 3.32609e-007 -2.88525e-006 3.48881e-006 3.32609e-007 -2.88525e-006 -3.48881e-006 -3.32609e-007 2.88525e-006 3.48881e-006 3.32609e-007 -2.88525e-006 -1.2921e-015 -2.6339e-015 3.18055e-015 3.48881e-006 3.32609e-007 -2.88525e-006 -3.48881e-006 -3.32609e-007 2.88525e-006 3.48881e-006 3.32609e-007 -2.88525e-006 3.48881e-006 3.32609e-007 -2.88525e-006 -3.48881e-006 -3.32609e-007 2.88525e-006 3.48881e-006 3.32609e-007 -2.88525e-006 84.6075 -57.9927 121.436 -116.225 58.0218 121.816 17.7279 21.7029 -17.0871 -96.796 -53.192 -133.549 137.852 58.5745 -139.987 -17.521 23.967 17.0053 
0.228833 -0.6087 69.5177 -180 -85.9956 -180 -0.00259611 0.68661 -0.0899536 -0.0041145 1.37323 -0.179895 -0.0041146 1.37322 -0.179895 5.78536e-006 23.3458 -1.84908e-005 2.55985e-008 2.89302 -8.35465e-008 -6.27129 -14.9631 -5.64961 -74.4926 -0.659869 1.62028 3.88838 -4.22117 -24.7961 -18.7195 0.501498 14.7154 1.19271e-015 1.98785e-016 -0 1.98785e-015 2.98177e-016 -0 1.98785e-015 -1.68967e-015 -0 -5.51738e-033 9.93923e-017 3.18055e-015 2.38542e-015 -3.47873e-015 -0 1.98785e-015 1.98785e-016 -3.18055e-015 2.38542e-015 -1.19271e-015 -0 2.38542e-015 -3.47873e-015 -0 1.98785e-015 1.98785e-016 -3.18055e-015 2.38542e-015 -1.19271e-015 -0 -5.51738e-033 9.93923e-017 3.18055e-015 2.38542e-015 -3.47873e-015 -0 1.98785e-015 1.98785e-016 -3.18055e-015 2.38542e-015 -1.19271e-015 -0 2.38542e-015 -3.47873e-015 -0 1.98785e-015 1.98785e-016 -3.18055e-015 2.38542e-015 -1.19271e-015 -0 -0.897143 -7.98307 -1.55982 82.8841 0.745892 -2.31943 0.460733 1.14324 45.0328 14.5492 2.80581 -7.46611 -2.68359e-015 5.2181e-015 1.59028e-014 -1.54058e-015 2.6339e-015 1.59028e-014 -2.38542e-015 3.42904e-015 6.36111e-015 -1.04362e-015 3.47873e-015 6.36111e-015 -2.48481e-015 3.8763e-015 9.54166e-015 -2.78299e-015 5.46658e-016 9.54166e-015 -5.96354e-016 2.78299e-015 6.36111e-015 -2.48481e-015 3.8763e-015 9.54166e-015 -2.78299e-015 5.46658e-016 9.54166e-015 -5.96354e-016 2.78299e-015 6.36111e-015 -1.04362e-015 3.47873e-015 6.36111e-015 -2.48481e-015 3.8763e-015 9.54166e-015 -2.78299e-015 5.46658e-016 9.54166e-015 -5.96354e-016 2.78299e-015 6.36111e-015 -2.48481e-015 3.8763e-015 9.54166e-015 -2.78299e-015 5.46658e-016 9.54166e-015 -5.96354e-016 2.78299e-015 6.36111e-015 85.6669 -58.0228 122.488 -117.679 58.0081 123.07 17.7216 21.8223 -17.0759 -97.2015 -53.3197 -134.028 138.899 58.0668 -140.944 -17.5198 24.1151 16.9866 
